# xmcd
#
# Track frame offsets:
#	150
#	17283
#	27720
#	42117
#	54605
#	69704
#
# Disc length: 1200 seconds
#
# Revision: 1
# Processed by: cddbd v1.5.2PL0 Copyright (c) Steve Scherf et al.
# Submitted via: audiograbber 1.83.01
#
DISCID=4a04ae06
DTITLE=Natalie Brandt - Natalie Brandt
DYEAR=1900
DGENRE=Country
TTITLE0=What The Heart Wants
TTITLE1=The End Of The World
TTITLE2=All The God Ones Are Gone
TTITLE3=One Less Monkey
TTITLE4=Don't Say This Is Goodbye
TTITLE5=When You Love Somebody
EXTD=
EXTT0=
EXTT1=
EXTT2=
EXTT3=
EXTT4=
EXTT5=
PLAYORDER=
